<svg width="265" height="73" viewBox="0 0 265 73" fill="none" xmlns="http://www.w3.org/2000/svg">
<g clip-path="url(#clip0_215_5896)">
<path d="M66.3503 22.9024H49.3896V5.6866C49.3896 3.09302 47.2895 0.979736 44.6884 0.979736H26.1287C23.5383 0.979736 21.4275 3.08235 21.4275 5.6866V14.9402H28.6659V8.22682H42.1406V43.1494H36.1921V50.3965H49.379V30.1495H63.8024V43.1494H56.5854V50.3965H66.3396C68.9301 50.3965 71.0408 48.2939 71.0408 45.6896V27.6093C71.0408 25.0157 68.9407 22.9024 66.3503 22.9024Z" fill="#247CFF"/>
<path d="M42.1511 64.7733H28.6764V30.1495H34.7314V22.9024H21.438V43.1388H7.23838V30.1495H14.3382V22.9024H4.70122C2.10009 22.9024 0 25.0157 0 27.6093V45.6897C0 48.2832 2.10009 50.3965 4.70122 50.3965H21.438V67.3242C21.438 69.9177 23.5381 72.031 26.1392 72.031H44.6989C47.2893 72.031 49.4001 69.9284 49.4001 67.3242V57.5902H42.1617V64.7733H42.1511Z" fill="#247CFF"/>
</g>
<path d="M97.5439 20.7526C101.017 20.7526 104.064 21.4314 106.684 22.7891C109.337 24.1468 111.373 26.0885 112.794 28.6144C114.246 31.1087 114.973 34.0135 114.973 37.3287C114.973 40.644 114.246 43.5487 112.794 46.0431C111.373 48.5058 109.337 50.416 106.684 51.7737C104.064 53.1313 101.017 53.8102 97.5439 53.8102H85.988V20.7526H97.5439ZM97.3071 48.1743C100.78 48.1743 103.464 47.2271 105.358 45.3327C107.253 43.4382 108.2 40.7703 108.2 37.3287C108.2 33.8872 107.253 31.2035 105.358 29.2775C103.464 27.3199 100.78 26.3411 97.3071 26.3411H92.6184V48.1743H97.3071Z" fill="#242424"/>
<path d="M131.586 54.2364C129.061 54.2364 126.787 53.6839 124.767 52.5788C122.746 51.4421 121.151 49.8477 119.983 47.7954C118.846 45.7431 118.278 43.3751 118.278 40.6913C118.278 38.0076 118.862 35.6396 120.03 33.5873C121.23 31.535 122.856 29.9563 124.909 28.8512C126.961 27.7146 129.25 27.1463 131.776 27.1463C134.302 27.1463 136.591 27.7146 138.643 28.8512C140.695 29.9563 142.306 31.535 143.474 33.5873C144.674 35.6396 145.274 38.0076 145.274 40.6913C145.274 43.3751 144.658 45.7431 143.427 47.7954C142.227 49.8477 140.585 51.4421 138.501 52.5788C136.449 53.6839 134.144 54.2364 131.586 54.2364ZM131.586 48.4584C132.786 48.4584 133.907 48.1743 134.949 47.606C136.023 47.0061 136.875 46.122 137.506 44.9538C138.138 43.7855 138.454 42.3647 138.454 40.6913C138.454 38.197 137.791 36.2868 136.465 34.9607C135.17 33.6031 133.576 32.9242 131.681 32.9242C129.787 32.9242 128.192 33.6031 126.898 34.9607C125.635 36.2868 125.003 38.197 125.003 40.6913C125.003 43.1856 125.619 45.1116 126.85 46.4693C128.113 47.7954 129.692 48.4584 131.586 48.4584Z" fill="#242424"/>
<path d="M148.432 40.6913C148.432 37.976 148.985 35.608 150.09 33.5873C151.195 31.535 152.726 29.9563 154.684 28.8512C156.641 27.7146 158.883 27.1463 161.409 27.1463C164.661 27.1463 167.345 27.9672 169.46 29.609C171.607 31.2192 173.044 33.4925 173.77 36.4289H166.619C166.24 35.2922 165.593 34.4082 164.677 33.7767C163.793 33.1137 162.688 32.7821 161.362 32.7821C159.467 32.7821 157.968 33.4768 156.862 34.866C155.757 36.2237 155.205 38.1654 155.205 40.6913C155.205 43.1856 155.757 45.1274 156.862 46.5167C157.968 47.8743 159.467 48.5532 161.362 48.5532C164.045 48.5532 165.798 47.3534 166.619 44.9538H173.77C173.044 47.7954 171.607 50.0529 169.46 51.7263C167.313 53.3997 164.63 54.2364 161.409 54.2364C158.883 54.2364 156.641 53.6839 154.684 52.5788C152.726 51.4421 151.195 49.8635 150.09 47.8428C148.985 45.7905 148.432 43.4067 148.432 40.6913Z" fill="#242424"/>
<path d="M176.923 40.5966C176.923 37.9444 177.444 35.5922 178.485 33.5399C179.559 31.4876 181.011 29.9089 182.843 28.8039C184.674 27.6988 186.71 27.1463 188.952 27.1463C190.657 27.1463 192.283 27.5251 193.83 28.2829C195.377 29.0091 196.609 29.9879 197.524 31.2192V18.7635H204.25V53.8102H197.524V49.9266C196.703 51.2211 195.551 52.2631 194.067 53.0524C192.583 53.8417 190.862 54.2364 188.905 54.2364C186.695 54.2364 184.674 53.6681 182.843 52.5314C181.011 51.3948 179.559 49.8003 178.485 47.748C177.444 45.6642 176.923 43.2804 176.923 40.5966ZM197.572 40.6913C197.572 39.0811 197.256 37.7076 196.624 36.571C195.993 35.4028 195.141 34.5187 194.067 33.9188C192.994 33.2873 191.841 32.9716 190.61 32.9716C189.378 32.9716 188.242 33.2715 187.2 33.8714C186.158 34.4713 185.305 35.3554 184.642 36.5236C184.011 37.6603 183.695 39.0179 183.695 40.5966C183.695 42.1753 184.011 43.5645 184.642 44.7643C185.305 45.9326 186.158 46.8324 187.2 47.4639C188.273 48.0953 189.41 48.4111 190.61 48.4111C191.841 48.4111 192.994 48.1111 194.067 47.5112C195.141 46.8798 195.993 45.9957 196.624 44.859C197.256 43.6908 197.572 42.3016 197.572 40.6913Z" fill="#242424"/>
<path d="M222.376 54.2364C219.85 54.2364 217.577 53.6839 215.556 52.5788C213.535 51.4421 211.941 49.8477 210.773 47.7954C209.636 45.7431 209.068 43.3751 209.068 40.6913C209.068 38.0076 209.652 35.6396 210.82 33.5873C212.02 31.535 213.646 29.9563 215.698 28.8512C217.75 27.7146 220.04 27.1463 222.565 27.1463C225.091 27.1463 227.38 27.7146 229.433 28.8512C231.485 29.9563 233.095 31.535 234.263 33.5873C235.463 35.6396 236.063 38.0076 236.063 40.6913C236.063 43.3751 235.447 45.7431 234.216 47.7954C233.016 49.8477 231.374 51.4421 229.291 52.5788C227.238 53.6839 224.933 54.2364 222.376 54.2364ZM222.376 48.4584C223.576 48.4584 224.697 48.1743 225.739 47.606C226.812 47.0061 227.665 46.122 228.296 44.9538C228.928 43.7855 229.243 42.3647 229.243 40.6913C229.243 38.197 228.58 36.2868 227.254 34.9607C225.96 33.6031 224.365 32.9242 222.471 32.9242C220.576 32.9242 218.982 33.6031 217.687 34.9607C216.424 36.2868 215.793 38.197 215.793 40.6913C215.793 43.1856 216.409 45.1116 217.64 46.4693C218.903 47.7954 220.482 48.4584 222.376 48.4584Z" fill="#242424"/>
<path d="M239.222 40.6913C239.222 37.976 239.774 35.608 240.879 33.5873C241.985 31.535 243.516 29.9563 245.473 28.8512C247.431 27.7146 249.673 27.1463 252.199 27.1463C255.451 27.1463 258.134 27.9672 260.25 29.609C262.397 31.2192 263.833 33.4925 264.56 36.4289H257.408C257.029 35.2922 256.382 34.4082 255.466 33.7767C254.582 33.1137 253.477 32.7821 252.151 32.7821C250.257 32.7821 248.757 33.4768 247.652 34.866C246.547 36.2237 245.994 38.1654 245.994 40.6913C245.994 43.1856 246.547 45.1274 247.652 46.5167C248.757 47.8743 250.257 48.5532 252.151 48.5532C254.835 48.5532 256.587 47.3534 257.408 44.9538H264.56C263.833 47.7954 262.397 50.0529 260.25 51.7263C258.103 53.3997 255.419 54.2364 252.199 54.2364C249.673 54.2364 247.431 53.6839 245.473 52.5788C243.516 51.4421 241.985 49.8635 240.879 47.8428C239.774 45.7905 239.222 43.4067 239.222 40.6913Z" fill="#242424"/>
<defs>
<clipPath id="clip0_215_5896">
<rect width="71.0406" height="71.0406" fill="white" transform="translate(0 0.979675)"/>
</clipPath>
</defs>
</svg>
